<svg preserveAspectRatio="none" overflow="visible" style="display: block;" width="126.245" height="101.264" viewBox="0 0 126.245 101.264" fill="none" xmlns="http://www.w3.org/2000/svg">
<g id="orange">
<g id="3d" filter="url(#filter0_d_0_4)">
<path d="M6.47887 9.77148L20.3297 2.4166C21.3374 1.88147 22.5685 2.00716 23.4473 2.73491L120.421 83.0379C121.775 84.1592 121.782 86.2332 120.436 87.3641L110.701 95.5435C110.701 95.5435 106.519 98.802 103.413 99.8392C99.6905 101.082 93.3777 100.614 93.3777 100.614H16.7603C16.7603 100.614 9.71821 100.614 5.14088 96.0365C-0.00118673 90.8944 0.000189209 84.558 0.000189209 84.558V23.2922C0.000189209 23.2922 0.000189209 18.4859 1.54944 15.4051C3.43134 11.6628 6.47887 9.77148 6.47887 9.77148Z" fill="url(#paint0_linear_0_4)"/>
</g>
<g id="mask">
<mask id="mask0_0_4" style="mask-type:alpha" maskUnits="userSpaceOnUse" x="0" y="2" width="122" height="99">
<path id="Vector 8" d="M6.47868 9.77099C7.0959 9.33176 16.4722 4.418 20.3429 2.39456C21.3473 1.8695 22.5625 2.00186 23.4354 2.72472L120.421 83.0374C121.775 84.1587 121.782 86.2327 120.436 87.3636L110.701 95.5431C110.701 95.5431 106.519 98.8015 103.412 99.8387C99.6903 101.082 93.3775 100.613 93.3775 100.613H16.7601C16.7601 100.613 9.71802 100.613 5.14069 96.036C-0.00137594 90.8939 4.07454e-10 84.5575 4.07454e-10 84.5575V23.2917C4.07454e-10 23.2917 4.07454e-10 18.4854 1.54925 15.4046C3.43115 11.6624 5.69953 10.3255 6.47868 9.77099Z" fill="#D9D9D9"/>
</mask>
<g mask="url(#mask0_0_4)">
<g id="Ellipse 38" filter="url(#filter1_f_0_4)">
<circle cx="14.2249" cy="1.53251" r="14.2249" fill="#FBDE4F"/>
</g>
</g>
</g>
<g id="block" filter="url(#filter2_f_0_4)">
<rect x="13.6584" y="0.336" width="112.25" height="90.5607" rx="14.0841" fill="#FF8B1F"/>
<rect x="14.0809" y="0.758523" width="111.405" height="89.7156" rx="13.6616" stroke="#FF9029" stroke-width="0.845045"/>
</g>
</g>
<defs>
<filter id="filter0_d_0_4" x="0.000189209" y="2.08758" width="121.441" height="99.176" filterUnits="userSpaceOnUse" color-interpolation-filters="sRGB">
<feFlood flood-opacity="0" result="BackgroundImageFix"/>
<feColorMatrix in="SourceAlpha" type="matrix" values="0 0 0 0 0 0 0 0 0 0 0 0 0 0 0 0 0 0 127 0" result="hardAlpha"/>
<feOffset dy="0.563363"/>
<feComposite in2="hardAlpha" operator="out"/>
<feColorMatrix type="matrix" values="0 0 0 0 0.731028 0 0 0 0 0.35232 0 0 0 0 0.00252102 0 0 0 1 0"/>
<feBlend mode="normal" in2="BackgroundImageFix" result="effect1_dropShadow_0_4"/>
<feBlend mode="normal" in="SourceGraphic" in2="effect1_dropShadow_0_4" result="shape"/>
</filter>
<filter id="filter1_f_0_4" x="-14.0841" y="-26.7765" width="56.618" height="56.618" filterUnits="userSpaceOnUse" color-interpolation-filters="sRGB">
<feFlood flood-opacity="0" result="BackgroundImageFix"/>
<feBlend mode="normal" in="SourceGraphic" in2="BackgroundImageFix" result="shape"/>
<feGaussianBlur stdDeviation="7.04204" result="effect1_foregroundBlur_0_4"/>
</filter>
<filter id="filter2_f_0_4" x="13.3224" y="1.19326e-08" width="112.922" height="91.2327" filterUnits="userSpaceOnUse" color-interpolation-filters="sRGB">
<feFlood flood-opacity="0" result="BackgroundImageFix"/>
<feBlend mode="normal" in="SourceGraphic" in2="BackgroundImageFix" result="shape"/>
<feGaussianBlur stdDeviation="0.168" result="effect1_foregroundBlur_0_4"/>
</filter>
<linearGradient id="paint0_linear_0_4" x1="23.0953" y1="15.1234" x2="60.6322" y2="100.7" gradientUnits="userSpaceOnUse">
<stop stop-color="#FF8C21"/>
<stop offset="0.518538" stop-color="#FF9533"/>
<stop offset="0.704072" stop-color="#D66700"/>
<stop offset="1" stop-color="#D16400"/>
</linearGradient>
</defs>
</svg>
